<svg width="24" height="24" viewBox="0 0 24 24" fill="none" xmlns="http://www.w3.org/2000/svg">
<path d="M20.6289 15.9984C20.5511 15.9047 20.4747 15.8109 20.3997 15.7204C19.3684 14.4731 18.7445 13.7203 18.7445 10.1892C18.7445 8.36107 18.3072 6.86107 17.4451 5.73607C16.8095 4.90498 15.9503 4.27451 14.8178 3.80857C14.8032 3.80047 14.7902 3.78983 14.7794 3.77717C14.372 2.4131 13.2573 1.49951 12.0001 1.49951C10.7429 1.49951 9.62873 2.41311 9.22139 3.77576C9.21052 3.78796 9.19768 3.79826 9.18342 3.80623C6.54061 4.8942 5.25623 6.98154 5.25623 10.1878C5.25623 13.7203 4.63326 14.4731 3.60108 15.719C3.52608 15.8095 3.44967 15.9014 3.37186 15.997C3.17086 16.2394 3.04351 16.5343 3.00488 16.8468C2.96625 17.1594 3.01796 17.4764 3.15389 17.7604C3.44311 18.3698 4.05951 18.7481 4.76311 18.7481H19.2423C19.9426 18.7481 20.5548 18.3703 20.845 17.7637C20.9815 17.4796 21.0337 17.1623 20.9954 16.8494C20.9571 16.5366 20.8299 16.2412 20.6289 15.9984Z" fill="#718096"/>
<path d="M11.9999 22.5C12.6773 22.4995 13.3419 22.3156 13.9232 21.9679C14.5045 21.6202 14.9809 21.1217 15.3018 20.5252C15.3169 20.4966 15.3244 20.4646 15.3235 20.4322C15.3226 20.3999 15.3133 20.3684 15.2966 20.3407C15.2799 20.313 15.2563 20.2901 15.2282 20.2742C15.2 20.2583 15.1682 20.25 15.1359 20.25H8.86492C8.83254 20.2499 8.80068 20.2582 8.77245 20.274C8.74422 20.2899 8.72057 20.3128 8.70382 20.3405C8.68706 20.3682 8.67777 20.3997 8.67684 20.4321C8.67591 20.4645 8.68337 20.4965 8.69851 20.5252C9.01939 21.1216 9.49569 21.6201 10.0769 21.9678C10.6581 22.3155 11.3226 22.4994 11.9999 22.5Z" fill="#718096"/>
</svg>
