<svg width="24" height="24" viewBox="0 0 24 24" fill="none" xmlns="http://www.w3.org/2000/svg">
<path d="M11.9998 8.25049C11.2581 8.25049 10.5331 8.47042 9.91643 8.88248C9.29975 9.29453 8.8191 9.8802 8.53527 10.5654C8.25144 11.2506 8.17718 12.0046 8.32188 12.7321C8.46657 13.4595 8.82372 14.1277 9.34817 14.6521C9.87262 15.1766 10.5408 15.5337 11.2682 15.6784C11.9957 15.8231 12.7497 15.7489 13.4349 15.465C14.1201 15.1812 14.7058 14.7006 15.1178 14.0839C15.5299 13.4672 15.7498 12.7422 15.7498 12.0005C15.7469 11.0068 15.3508 10.0547 14.6482 9.35211C13.9456 8.6495 12.9935 8.25345 11.9998 8.25049ZM20.0961 12.0005C20.0941 12.3509 20.0684 12.7007 20.0192 13.0477L22.3015 14.8345C22.4009 14.9166 22.4679 15.0314 22.4905 15.1583C22.5131 15.2852 22.4898 15.416 22.4248 15.5274L20.2658 19.2549C20.2001 19.3652 20.0977 19.4489 19.9764 19.4911C19.8552 19.5334 19.723 19.5316 19.6029 19.486L16.9194 18.4078C16.3605 18.8381 15.749 19.1952 15.0997 19.4705L14.6984 22.3195C14.676 22.4472 14.6099 22.563 14.5115 22.6473C14.4131 22.7316 14.2884 22.7791 14.1589 22.7817H9.84076C9.71356 22.7793 9.59096 22.7337 9.49297 22.6526C9.39498 22.5715 9.32739 22.4595 9.30123 22.335L8.89998 19.486C8.24882 19.2139 7.63687 18.8562 7.08029 18.4224L4.3967 19.5005C4.27674 19.5461 4.14452 19.5481 4.02329 19.5059C3.90207 19.4637 3.79959 19.3801 3.73389 19.2699L1.57482 15.5428C1.50983 15.4315 1.48655 15.3007 1.50914 15.1738C1.53172 15.0468 1.5987 14.9321 1.6981 14.85L3.98045 13.0631C3.93177 12.711 3.90609 12.356 3.90357 12.0005C3.90552 11.6501 3.93121 11.3002 3.98045 10.9533L1.6981 9.16642C1.5987 9.08435 1.53172 8.96959 1.50914 8.84268C1.48655 8.71576 1.50983 8.58494 1.57482 8.47361L3.73389 4.74611C3.79952 4.63577 3.90196 4.5521 4.0232 4.50983C4.14443 4.46756 4.27668 4.4694 4.3967 4.51502L7.08029 5.59314C7.6391 5.16284 8.25061 4.80572 8.89998 4.53049L9.30123 1.68143C9.32368 1.55381 9.38976 1.43795 9.48817 1.35365C9.58658 1.26935 9.71121 1.22184 9.84076 1.21924H14.1589C14.2861 1.22171 14.4087 1.26723 14.5067 1.34837C14.6047 1.4295 14.6723 1.54146 14.6984 1.66596L15.0997 4.51502C15.7516 4.78688 16.3644 5.14457 16.9217 5.57861L19.6029 4.50049C19.7229 4.45483 19.8551 4.45292 19.9763 4.4951C20.0976 4.53728 20.2001 4.62085 20.2658 4.73111L22.4248 8.45861C22.4898 8.56994 22.5131 8.70076 22.4905 8.82768C22.4679 8.95459 22.4009 9.06935 22.3015 9.15142L20.0192 10.9383C20.0679 11.2903 20.0935 11.6451 20.0961 12.0005Z" fill="#718096"/>
</svg>
